<svg width="28" height="28" viewBox="0 0 28 28" fill="none" xmlns="http://www.w3.org/2000/svg">
<g clip-path="url(#clip0_1_952)">
<path d="M22.75 4.375H5.25C4.76675 4.375 4.375 4.76675 4.375 5.25V22.75C4.375 23.2332 4.76675 23.625 5.25 23.625H22.75C23.2332 23.625 23.625 23.2332 23.625 22.75V5.25C23.625 4.76675 23.2332 4.375 22.75 4.375Z" stroke="black" stroke-width="1.75" stroke-linecap="round" stroke-linejoin="round"/>
<path d="M23.625 17.5L18.9984 12.8734C18.917 12.7908 18.82 12.7251 18.7129 12.6803C18.6059 12.6355 18.491 12.6124 18.375 12.6124C18.259 12.6124 18.1441 12.6355 18.0371 12.6803C17.93 12.7251 17.833 12.7908 17.7516 12.8734L12.8734 17.7516C12.792 17.8342 12.695 17.8999 12.5879 17.9447C12.4809 17.9895 12.366 18.0126 12.25 18.0126C12.134 18.0126 12.0191 17.9895 11.9121 17.9447C11.805 17.8999 11.708 17.8342 11.6266 17.7516L9.37344 15.4984C9.29202 15.4158 9.19497 15.3501 9.08794 15.3053C8.98091 15.2605 8.86603 15.2374 8.75 15.2374C8.63397 15.2374 8.51909 15.2605 8.41206 15.3053C8.30503 15.3501 8.20798 15.4158 8.12656 15.4984L4.375 19.25" stroke="black" stroke-width="1.75" stroke-linecap="round" stroke-linejoin="round"/>
<path d="M10.9375 11.375C11.6624 11.375 12.25 10.7874 12.25 10.0625C12.25 9.33763 11.6624 8.75 10.9375 8.75C10.2126 8.75 9.625 9.33763 9.625 10.0625C9.625 10.7874 10.2126 11.375 10.9375 11.375Z" fill="black"/>
</g>
<defs>
<clipPath id="clip0_1_952">
<rect width="28" height="28" fill="white"/>
</clipPath>
</defs>
</svg>
