<svg width="26" height="26" viewBox="0 0 26 26" fill="none" xmlns="http://www.w3.org/2000/svg">
<g clip-path="url(#clip0_2892_1719)">
<path d="M9.77925 9.79221H6.50652V5.97403C6.50652 5.14286 6.67102 4.36797 7.00003 3.64935C7.32903 2.93074 7.78357 2.2987 8.36366 1.75325C8.94375 1.20779 9.62773 0.779221 10.4156 0.467532C11.2035 0.155844 12.065 -1.69271e-08 13 0C13.8312 0 14.6321 0.155844 15.4026 0.467532C16.1732 0.779221 16.8572 1.20779 17.4546 1.75325C18.052 2.2987 18.5282 2.93074 18.8831 3.64935C19.2381 4.36797 19.4156 5.14286 19.4156 5.97403V9.79221H16.2728V6.7013C16.2728 5.61039 15.9697 4.76623 15.3637 4.16883C14.7576 3.57143 13.9351 3.27273 12.8961 3.27273C11.9611 3.27273 11.2078 3.57143 10.6364 4.16883C10.065 4.76623 9.77925 5.61039 9.77925 6.7013V9.79221ZM20.9741 11.3506C21.4416 11.3506 21.8442 11.5195 22.1818 11.8571C22.5195 12.1948 22.6883 12.5974 22.6883 13.0649V21.1169C22.6883 21.5844 22.6061 22.0216 22.4416 22.4286C22.2771 22.8355 22.052 23.1905 21.7663 23.4935C21.4805 23.7965 21.1429 24.0346 20.7533 24.2078C20.3637 24.381 19.9351 24.4675 19.4676 24.4675H6.35067C5.88314 24.4675 5.4589 24.381 5.07795 24.2078C4.69699 24.0346 4.37232 23.8052 4.10392 23.5195C3.83552 23.2338 3.62773 22.9004 3.48054 22.5195C3.33336 22.1385 3.25977 21.7316 3.25977 21.2987V13.0649C3.25977 12.5974 3.42427 12.1948 3.75327 11.8571C4.08228 11.5195 4.48054 11.3506 4.94808 11.3506H6.50652H9.77925H16.2728H19.4156H20.9741Z" fill="white"/>
</g>
<defs>
<clipPath id="clip0_2892_1719">
<rect width="26" height="26" fill="white"/>
</clipPath>
</defs>
</svg>
