<svg width="96" height="106" viewBox="0 0 96 106" fill="none" xmlns="http://www.w3.org/2000/svg">
<path fill-rule="evenodd" clip-rule="evenodd" d="M0.00941321 32.3108C0.103461 31.4267 0.896368 30.7863 1.78042 30.8803C6.06022 31.3356 11.5468 33.2541 17.0432 37.2421C17.7628 37.7642 17.9229 38.7708 17.4008 39.4904C16.8787 40.21 15.8721 40.3701 15.1525 39.848C10.0645 36.1563 5.10434 34.4716 1.43984 34.0818C0.55579 33.9877 -0.0846348 33.1948 0.00941321 32.3108ZM23.1206 44.9234C23.8057 44.3568 24.8204 44.4529 25.387 45.138C34.0484 55.611 41.049 71.0802 41.049 97.6759C41.049 98.565 40.3283 99.2857 39.4393 99.2857C38.5502 99.2857 37.8295 98.565 37.8295 97.6759C37.8295 71.717 31.0231 57.0046 22.9061 47.1898C22.3395 46.5047 22.4355 45.49 23.1206 44.9234Z" fill="url(#paint0_linear_1531_2083)"/>
<path fill-rule="evenodd" clip-rule="evenodd" d="M0.048444 41.7491C0.264068 40.8866 1.13806 40.3622 2.00055 40.5779C8.2073 42.1296 17.7408 47.8611 24.4283 59.8684C24.8608 60.6451 24.5819 61.6254 23.8052 62.058C23.0285 62.4906 22.0482 62.2116 21.6156 61.4349C15.3372 50.1621 6.51655 45.0255 1.21971 43.7012C0.357213 43.4856 -0.16718 42.6116 0.048444 41.7491ZM25.46 65.5916C26.2879 65.2677 27.2217 65.6763 27.5456 66.5042C30.3671 73.7166 32.1954 81.061 32.1954 92.0418C32.1954 92.9308 31.4747 93.6516 30.5856 93.6516C29.6966 93.6516 28.9759 92.9308 28.9759 92.0418C28.9759 81.4968 27.2358 74.5493 24.5473 67.6772C24.2234 66.8492 24.6321 65.9155 25.46 65.5916Z" fill="url(#paint1_linear_1531_2083)"/>
<path fill-rule="evenodd" clip-rule="evenodd" d="M0.0387137 53.8635C0.231574 52.9956 1.09147 52.4484 1.95934 52.6413C6.12492 53.5669 10.8655 57.139 14.531 62.7944C18.2298 68.5012 20.9271 76.4544 20.9271 86.4077C20.9271 87.2967 20.2064 88.0174 19.3174 88.0174C18.4283 88.0174 17.7076 87.2967 17.7076 86.4077C17.7076 77.0439 15.1732 69.7046 11.8294 64.5455C8.45231 59.3352 4.33922 56.4682 1.26093 55.7841C0.393057 55.5912 -0.154146 54.7313 0.0387137 53.8635Z" fill="url(#paint2_linear_1531_2083)"/>
<path fill-rule="evenodd" clip-rule="evenodd" d="M0.00836968 66.9305C0.0968326 66.0459 0.885679 65.4005 1.77031 65.4889C4.4714 65.759 8.50558 68.0438 10.3177 73.8554C10.5823 74.7041 10.1088 75.6067 9.26008 75.8713C8.41134 76.136 7.50877 75.6625 7.24413 74.8137C5.78848 70.1453 2.77517 68.825 1.44996 68.6924C0.565327 68.604 -0.0800932 67.8151 0.00836968 66.9305Z" fill="url(#paint3_linear_1531_2083)"/>
<path fill-rule="evenodd" clip-rule="evenodd" d="M36.4168 2.95851C39.806 1.01994 43.648 0 47.558 0C51.468 0 55.3099 1.01994 58.6991 2.95851L95.1157 23.832V78.3647L47.554 105.601L0.000244141 78.3646V23.832L36.4168 2.95851ZM38.0153 5.75315C38.0151 5.75328 38.0156 5.75302 38.0153 5.75315L3.21974 25.6975V76.4984L47.5542 101.891L91.8962 76.4983V25.6975L57.1006 5.75315C57.1004 5.75302 57.1009 5.75328 57.1006 5.75315C54.1993 4.09378 50.908 3.2195 47.558 3.2195C44.2079 3.2195 40.9167 4.09378 38.0153 5.75315Z" fill="url(#paint4_linear_1531_2083)"/>
<path d="M57.8999 4.35583L93.506 24.7647V77.4315L47.5541 103.746C47.554 35.5143 10.5344 24.7648 1.60999 24.7648L37.2161 4.35583C40.3614 2.55673 43.9278 1.60975 47.558 1.60975C51.1881 1.60975 54.7545 2.55673 57.8999 4.35583Z" fill="url(#paint5_linear_1531_2083)"/>
<defs>
<linearGradient id="paint0_linear_1531_2083" x1="20.5245" y1="0.804684" x2="20.5245" y2="106.243" gradientUnits="userSpaceOnUse">
<stop stop-color="#5FC4F1"/>
<stop offset="0.0001" stop-color="#5FC4F1"/>
<stop offset="1" stop-color="#007AFF"/>
</linearGradient>
<linearGradient id="paint1_linear_1531_2083" x1="20.5245" y1="0.804684" x2="20.5245" y2="106.243" gradientUnits="userSpaceOnUse">
<stop stop-color="#5FC4F1"/>
<stop offset="0.0001" stop-color="#5FC4F1"/>
<stop offset="1" stop-color="#007AFF"/>
</linearGradient>
<linearGradient id="paint2_linear_1531_2083" x1="20.5245" y1="0.804684" x2="20.5245" y2="106.243" gradientUnits="userSpaceOnUse">
<stop stop-color="#5FC4F1"/>
<stop offset="0.0001" stop-color="#5FC4F1"/>
<stop offset="1" stop-color="#007AFF"/>
</linearGradient>
<linearGradient id="paint3_linear_1531_2083" x1="20.5245" y1="0.804684" x2="20.5245" y2="106.243" gradientUnits="userSpaceOnUse">
<stop stop-color="#5FC4F1"/>
<stop offset="0.0001" stop-color="#5FC4F1"/>
<stop offset="1" stop-color="#007AFF"/>
</linearGradient>
<linearGradient id="paint4_linear_1531_2083" x1="47.558" y1="0" x2="47.558" y2="105.601" gradientUnits="userSpaceOnUse">
<stop stop-color="#5FC4F1"/>
<stop offset="1" stop-color="#007AFF"/>
</linearGradient>
<linearGradient id="paint5_linear_1531_2083" x1="47.558" y1="0" x2="47.558" y2="105.601" gradientUnits="userSpaceOnUse">
<stop stop-color="#5FC4F1"/>
<stop offset="1" stop-color="#007AFF"/>
</linearGradient>
</defs>
</svg>
