<svg width="58" height="58" viewBox="0 0 58 58" fill="none" xmlns="http://www.w3.org/2000/svg">
<path d="M57.8641 29.068C57.8641 45.0633 44.9273 58 28.932 58C12.9367 58 0 45.0633 0 29.068C0 16.8563 7.63516 6.40044 18.4082 2.14106C21.6141 0.860986 25.2391 0.135986 28.932 0.135986C32.625 0.135986 36.25 0.860986 39.4559 2.14106C50.2289 6.40044 57.8641 16.8563 57.8641 29.068ZM17.8418 23.0415C17.8418 27.9465 20.334 32.1266 23.9477 34.211C25.477 35.0946 27.1648 35.5817 28.932 35.5817C30.6992 35.5817 32.3078 35.0946 33.7578 34.2903C37.4508 32.2852 40.0223 28.0258 40.0223 23.0415C40.0223 16.1313 35.0379 10.5012 28.932 10.5012C22.8262 10.5012 17.8418 16.1313 17.8418 23.0415ZM29.0113 56.1536C37.4508 56.1536 45.0066 52.2907 49.991 46.1848C49.4246 41.359 44.7688 37.2696 38.0965 35.2532C35.6043 37.5075 32.3871 38.8668 28.932 38.8668C25.3977 38.8668 22.1012 37.4168 19.609 35.0946C13.1746 36.9411 8.43945 40.7247 7.39727 45.1426C12.2117 51.8149 20.1754 56.1536 29.0113 56.1536Z" fill="#EBEBEB"/>
</svg>
