<svg width="68" height="68" viewBox="0 0 68 68" fill="none" xmlns="http://www.w3.org/2000/svg">
<rect width="68" height="68" fill="#E7F3FA"/>
<path d="M36.92 22.5847C37.0175 22.2817 37.2315 22.0298 37.5148 21.8844C37.7981 21.7391 38.1275 21.7123 38.4305 21.8099C38.7336 21.9074 38.9855 22.1214 39.1308 22.4047C39.2761 22.688 39.303 23.0174 39.2054 23.3204L31.7638 46.1014C31.6662 46.4044 31.4523 46.6563 31.169 46.8016C30.8857 46.947 30.5563 46.9738 30.2532 46.8762C29.9501 46.7787 29.6982 46.5647 29.5529 46.2814C29.4076 45.9981 29.3808 45.6687 29.4783 45.3657L36.92 22.5847Z" fill="url(#paint0_linear_553_7822)"/>
<path d="M27.7587 44.1352L25.237 46.657C25.0629 46.8311 24.7806 46.8311 24.6066 46.657L18.3023 40.3526C17.9541 40.0044 17.9541 39.4399 18.3023 39.0917L20.5088 36.8852C20.857 36.537 21.4215 36.537 21.7696 36.8852L27.7587 42.8743C28.1068 43.2225 28.1068 43.787 27.7587 44.1352Z" fill="#64D2FF"/>
<path d="M24.525 22.5847L13.7628 33.347C13.0665 34.0434 13.0665 35.1724 13.7628 35.8688L24.5735 46.6797C20.6649 42.771 21.1367 36.0679 22.8448 34.2335L26.9881 30.0902C28.7289 28.3493 28.7284 25.5273 26.9875 23.7864L25.7858 22.5847C25.4376 22.2365 24.8731 22.2365 24.525 22.5847Z" fill="url(#paint1_linear_553_7822)"/>
<path d="M40.2452 24.7359L42.7669 22.2141C42.941 22.04 43.2233 22.04 43.3974 22.2141L49.7016 28.5185C50.0498 28.8667 50.0498 29.4312 49.7016 29.7794L47.4951 31.9859C47.1469 32.3341 46.5824 32.3341 46.2343 31.9859L40.2452 25.9967C39.8971 25.6486 39.8971 25.0841 40.2452 24.7359Z" fill="#64D2FF"/>
<path d="M43.4789 46.285L54.2411 35.5226C54.9375 34.8262 54.9375 33.6972 54.2411 33.0008L43.4304 22.1899C47.339 26.0986 46.8672 32.8018 45.1591 34.6361L41.0158 38.7795C39.275 40.5204 39.2755 43.3424 41.0164 45.0833L42.2181 46.285C42.5663 46.6331 43.1308 46.6331 43.4789 46.285Z" fill="url(#paint2_linear_553_7822)"/>
<defs>
<linearGradient id="paint0_linear_553_7822" x1="34.4113" y1="26.6938" x2="34.9964" y2="42.2853" gradientUnits="userSpaceOnUse">
<stop stop-color="#64D2FF"/>
<stop offset="1" stop-color="#007AFF"/>
</linearGradient>
<linearGradient id="paint1_linear_553_7822" x1="18.8287" y1="28.2811" x2="30.9005" y2="40.3527" gradientUnits="userSpaceOnUse">
<stop stop-color="#64D2FF"/>
<stop offset="1" stop-color="#007AFF"/>
</linearGradient>
<linearGradient id="paint2_linear_553_7822" x1="49.1752" y1="40.5886" x2="37.1034" y2="28.517" gradientUnits="userSpaceOnUse">
<stop stop-color="#007AFF"/>
<stop offset="1" stop-color="#64D2FF"/>
</linearGradient>
</defs>
</svg>
